<?xml version="1.0" standalone="no"?>
<!DOCTYPE svg PUBLIC "-//W3C//DTD SVG 20010904//EN"
 "http://www.w3.org/TR/2001/REC-SVG-20010904/DTD/svg10.dtd">
<svg version="1.0" xmlns="http://www.w3.org/2000/svg"
 width="181.000000pt" height="181.000000pt" viewBox="0 0 181.000000 181.000000"
 preserveAspectRatio="xMidYMid meet">
<metadata>
Created by potrace 1.11, written by Peter Selinger 2001-2013
</metadata>
<g transform="translate(0.000000,181.000000) scale(0.100000,-0.100000)"
fill="#000000" stroke="none">
<path d="M810 1710 c0 -6 159 -11 443 -12 l442 -3 3 -787 2 -788 -790 0 -790
0 0 450 c0 293 -3 450 -10 450 -7 0 -10 -160 -10 -460 l0 -460 810 0 810 0 0
810 0 810 -455 0 c-293 0 -455 -4 -455 -10z"/>
<path d="M820 1580 c0 -52 -16 -96 -44 -119 -10 -8 -16 -30 -16 -55 0 -45 -27
-113 -53 -134 -9 -8 -37 -22 -64 -32 -43 -16 -49 -23 -60 -61 -23 -77 -95
-126 -173 -117 -16 1 -37 -5 -47 -13 -40 -36 -84 -51 -129 -44 l-44 6 0 -410
0 -411 123 0 c67 0 140 -3 162 -7 l40 -6 -51 51 c-99 98 -111 227 -31 319 33
37 81 63 118 63 39 0 87 -31 104 -67 21 -44 7 -84 -39 -113 -48 -29 -67 -54
-68 -91 -2 -64 74 -89 157 -50 72 33 193 181 285 348 l23 43 -18 55 c-17 49
-18 57 -4 70 18 19 46 11 54 -16 9 -26 20 -24 34 9 29 64 148 228 222 306 l80
84 -58 29 c-53 26 -67 28 -168 28 -103 0 -114 -2 -177 -32 -85 -40 -151 -106
-191 -191 -29 -61 -32 -75 -32 -167 0 -118 14 -150 88 -205 66 -49 65 -100 -2
-100 -30 0 -99 68 -128 128 -26 52 -28 67 -28 167 0 99 3 116 27 169 87 185
250 293 458 303 107 6 180 -6 256 -41 l50 -23 65 38 c35 22 70 39 77 39 9 0
12 37 12 150 l0 150 -405 0 -405 0 0 -50z"/>
<path d="M1583 1244 c-24 -14 -43 -27 -43 -30 0 -2 20 -29 45 -60 l45 -55 0
86 c0 47 -1 85 -2 85 -2 0 -22 -12 -45 -26z"/>
<path d="M1399 1048 c-54 -94 -169 -365 -169 -398 0 -21 68 -22 113 -2 47 21
80 58 118 132 32 63 39 204 12 274 -10 27 -23 51 -28 53 -6 2 -27 -25 -46 -59z"/>
<path d="M1587 612 c-46 -47 -106 -78 -180 -93 -44 -9 -70 -8 -133 5 -43 8
-79 14 -80 13 -1 -1 -15 -29 -32 -62 -57 -115 -125 -190 -240 -267 -20 -14 11
-16 340 -20 200 -3 364 -4 366 -3 1 1 1 106 0 234 l-3 232 -38 -39z"/>
</g>
</svg>
